<svg enable-background="new 0 0 24 24" height="512" viewBox="0 0 24 24" width="512" xmlns="http://www.w3.org/2000/svg"><g id="color"><g><path d="m21.125 15.354h-18.375c-1.105 0-2-.895-2-2v-10.604c0-1.105.895-2 2-2h18.375c1.105 0 2 .895 2 2v10.604c0 1.105-.895 2-2 2z" fill="#4caf50"/></g><g><circle cx="12" cy="8" fill="#fafafa" r="2.187"/></g></g><g id="regular"><g><path d="m15.56 16h-12.81c-1.517 0-2.75-1.233-2.75-2.75v-10.5c0-1.517 1.233-2.75 2.75-2.75h18.5c1.517 0 2.75 1.233 2.75 2.75v9.5c0 .414-.336.75-.75.75s-.75-.336-.75-.75v-9.5c0-.689-.561-1.25-1.25-1.25h-18.5c-.689 0-1.25.561-1.25 1.25v10.5c0 .689.561 1.25 1.25 1.25h12.81c.414 0 .75.336.75.75s-.336.75-.75.75z"/></g><g><path d="m6.25 4.5h-2.5c-.414 0-.75-.336-.75-.75s.336-.75.75-.75h2.5c.414 0 .75.336.75.75s-.336.75-.75.75z"/></g><g><path d="m12 11c-1.654 0-3-1.346-3-3s1.346-3 3-3 3 1.346 3 3-1.346 3-3 3zm0-4.5c-.827 0-1.5.673-1.5 1.5s.673 1.5 1.5 1.5 1.5-.673 1.5-1.5-.673-1.5-1.5-1.5z"/></g><g><g><path d="m19.88 21.5h-2.13c-.414 0-.75-.336-.75-.75s.336-.75.75-.75h2.13c.342 0 .62-.278.62-.62 0-.352-.278-.63-.62-.63h-.76c-1.169 0-2.12-.951-2.12-2.12 0-1.179.951-2.13 2.12-2.13h2.13c.414 0 .75.336.75.75s-.336.75-.75.75h-2.13c-.342 0-.62.278-.62.62 0 .352.278.63.62.63h.76c1.169 0 2.12.951 2.12 2.12 0 1.179-.951 2.13-2.12 2.13z"/></g><g><path d="m19.5 16c-.414 0-.75-.336-.75-.75v-1.5c0-.414.336-.75.75-.75s.75.336.75.75v1.5c0 .414-.336.75-.75.75z"/></g><g><path d="m19.5 23c-.414 0-.75-.336-.75-.75v-1.5c0-.414.336-.75.75-.75s.75.336.75.75v1.5c0 .414-.336.75-.75.75z"/></g></g></g></svg>